# xmcd
#
# Track frame offsets: 
#        150
#        11966
#        31197
#        49726
#        66922
#        84107
#        99760
#        115806
#        134449
#        149313
#        164793
#        183030
#        194528
#        209969
#
# Disc length: 3093 seconds
#
# Revision: 0
# Processed by: cddbd v1.5.2PL0 Copyright (c) Steve Scherf et al.
# Submitted via: ExactAudioCopy v0.99pb5
#
DISCID=c80c130e
DTITLE=The Gravy Boys - Working The Angels For Handouts
DYEAR=2007
DGENRE=Bluegrass
TTITLE0=Georgia Peach
TTITLE1=Emmy Lou
TTITLE2=You're To Thank
TTITLE3=Freight Train Ramblin'
TTITLE4=This Time You're Mine
TTITLE5=Whole Lotta Nothin'
TTITLE6=Angel For My Baby
TTITLE7=Lonesome Troubador
TTITLE8=Central Valley
TTITLE9=Ramblin' Heart
TTITLE10=It Makes Me Pine
TTITLE11=Red Piedmont Soil
TTITLE12=Rounder Blues
TTITLE13=Pilgrim
EXTD=
EXTT0=
EXTT1=
EXTT2=
EXTT3=
EXTT4=
EXTT5=
EXTT6=
EXTT7=
EXTT8=
EXTT9=
EXTT10=
EXTT11=
EXTT12=
EXTT13=
PLAYORDER=
